{"title":"Lonely Hearts *2006*[BluRay][1080p][ENG, POL]","uid":6022569,"size":8024391223,"categoryP":"video","categoryS":"hd___movies","magnet":"?xt=urn:btih:eb2e9d5e24078c275f6f431b92c1961db16a2953&amp;dn=Lonely+Hearts+%2A2006%2A%5BBluRay%5D%5B1080p%5D%5BENG%2C+POL%5D&amp;tr=udp%3A%2F%2Ftracker.openbittorrent.com%3A80&amp;tr=udp%3A%2F%2Fopen.demonii.com%3A1337&amp;tr=udp%3A%2F%2Ftracker.coppersurfer.tk%3A6969&amp;tr=udp%3A%2F%2Fexodus.desync.com%3A6969","seeders":2,"leechers":6,"uploader":"albedo040","files":1,"time":1291845706,"description":"Lonely Hearts *2006*[BluRay][1080p][ENG, POL]\n\nGeneral information:\nCountry: Germany, USA \nRelease: 30 April 2006 (Tribeca Film Festival)\nGenre: Crime, Drama, Romance, Thriller \nDirector: Todd Robinson\nScreenplay: Todd Robinson\nOriginal Music: Mychael Danna \nCinematography by: Peter Levy \nDuration: 1h 47mn\nLanguage: English, POlish\nSubtitles: English, POlish\nRating: 7.2/10 - 2246 votes \n\nCast:\nJohn Travolta  ...  Det. Elmer Robinson  \nJames Gandolfini  ...  Det. Charles Hilderbrandt  \nJared Leto  ...  Ray Fernandez  \nSalma Hayek  ...  Martha Beck  \nScott Caan  ...  Det. Reilly  \nLaura Dern  ...  Rene Fodie  \nMichael Gaston  ...  D.A. Hunt  \nBruce MacVittie  ...  Det. Eastman  \nDan Byrd  ...  Eddie Robinson  \nAndrew Wheeler  ...  Det. Tooley  \nAlice Krige  ...  Janet Long  \nDagmara Dominczyk  ...  Delphine Downing  \nJohn Doman  ...  Chief MacSwain  \nBailee Madison  ...  Rainelle Downing  \nEllen Travolta  ...  Ida  \n\nPlot:\nBased on the true story, two homicide detectives track Martha Beck and Raymond Martinez Fernandez, a murderous pair known as the &quot;Lonely Hearts Killers&quot; who lured their victims through the personals. \n\nSpecifications:\nGeneral\nFormat                           : Matroska\nOverall bit rate                 : 9 943 Kbps\nWriting library                  : libebml v1.0.0 + libmatroska v1.0.0\n\nVideo\nFormat                           : AVC\nFormat/Info                      : Advanced Video Codec\nFormat profile                   : &lt;a class=&quot;__cf_email__&quot; href=&quot;/cdn-cgi/l/email-protection&quot; data-cfemail=&quot;f0b8999798b0bcc4dec1&quot;&gt;[email&amp;#160;protected]&lt;/a&gt;&lt;script cf-hash='f9e31' type=&quot;text/javascript&quot;&gt;\n/* &lt;![CDATA[ */!function(){try{var t=&quot;currentScript&quot;in document?document.currentScript:function(){for(var t=document.getElementsByTagName(&quot;script&quot;),e=t.length;e--;)if(t[e].getAttribute(&quot;cf-hash&quot;))return t[e]}();if(t&amp;&amp;t.previousSibling){var e,r,n,i,c=t.previousSibling,a=c.getAttribute(&quot;data-cfemail&quot;);if(a){for(e=&quot;&quot;,r=parseInt(a.substr(0,2),16),n=2;a.length-n;n+=2)i=parseInt(a.substr(n,2),16)^r,e+=String.fromCharCode(i);e=document.createTextNode(e),c.parentNode.replaceChild(e,c)}}}catch(u){}}();/* ]]&gt; */&lt;/script&gt;\nFormat settings, CABAC           : Yes\nFormat settings, ReFrames        : 3 frames\nFormat settings, GOP             : M=4, N=29\nMuxing mode                      : Container profile=&lt;a class=&quot;__cf_email__&quot; href=&quot;/cdn-cgi/l/email-protection&quot; data-cfemail=&quot;96c3f8fdf8f9e1f8d6a2b8a7&quot;&gt;[email&amp;#160;protected]&lt;/a&gt;&lt;script cf-hash='f9e31' type=&quot;text/javascript&quot;&gt;\n/* &lt;![CDATA[ */!function(){try{var t=&quot;currentScript&quot;in document?document.currentScript:function(){for(var t=document.getElementsByTagName(&quot;script&quot;),e=t.length;e--;)if(t[e].getAttribute(&quot;cf-hash&quot;))return t[e]}();if(t&amp;&amp;t.previousSibling){var e,r,n,i,c=t.previousSibling,a=c.getAttribute(&quot;data-cfemail&quot;);if(a){for(e=&quot;&quot;,r=parseInt(a.substr(0,2),16),n=2;a.length-n;n+=2)i=parseInt(a.substr(n,2),16)^r,e+=String.fromCharCode(i);e=document.createTextNode(e),c.parentNode.replaceChild(e,c)}}}catch(u){}}();/* ]]&gt; */&lt;/script&gt;\nCodec ID                         : V_MPEG4/ISO/AVC\nBit rate                         : 8 677 Kbps\nWidth                            : 1 920 pixels\nHeight                           : 1 080 pixels\nDisplay aspect ratio             : 16:9\nFrame rate                       : 23.976 fps\n\nAudio 1\nFormat                           : AC-3\nFormat/Info                      : Audio Coding 3\nMode extension                   : CM (complete main)\nCodec ID                         : A_AC3\nBit rate mode                    : Constant\nBit rate                         : 640 Kbps\nChannel(s)                       : 6 channels\nChannel positions                : Front: L C R, Side: L R, LFE\nSampling rate                    : 48.0 KHz\nStream size                      : 493 MiB (6%)\nTitle                            : English\n\nAudio 2\nFormat                           : AC-3\nFormat/Info                      : Audio Coding 3\nMode extension                   : CM (complete main)\nCodec ID                         : A_AC3\nBit rate mode                    : Constant\nBit rate                         : 640 Kbps\nChannel(s)                       : 6 channels\nChannel positions                : Front: L C R, Side: L R, LFE\nSampling rate                    : 48.0 KHz\nStream size                      : 493 MiB (6%)\nTitle                            : Polish\nLanguage                         : Polish\n\nText 1\nFormat                           : UTF-8\nCodec ID                         : S_TEXT/UTF8\nCodec ID/Info                    : UTF-8 Plain Text\nTitle                            : English\n\nText 2\nFormat                           : UTF-8\nCodec ID                         : S_TEXT/UTF8\nCodec ID/Info                    : UTF-8 Plain Text\nTitle                            : Polish\nLanguage                         : Polish\n","torrent":{"xt":"urn:btih:eb2e9d5e24078c275f6f431b92c1961db16a2953","amp;dn":"Lonely+Hearts+%2A2006%2A%5BBluRay%5D%5B1080p%5D%5BENG%2C+POL%5D","amp;tr":["udp%3A%2F%2Ftracker.openbittorrent.com%3A80","udp%3A%2F%2Fopen.demonii.com%3A1337","udp%3A%2F%2Ftracker.coppersurfer.tk%3A6969","udp%3A%2F%2Fexodus.desync.com%3A6969"],"infoHash":"eb2e9d5e24078c275f6f431b92c1961db16a2953","infoHashBuffer":{"type":"Buffer","data":[235,46,157,94,36,7,140,39,95,111,67,27,146,193,150,29,177,106,41,83]},"announce":[],"urlList":[]}}